v -11.2174 -1.60639 -1.75064
vn -0.441683 -0.365198 0.81948
vt 0.00667495 0.367135
v -5.09202 -1.59091 1.14286
vn -0.0748277 -0.297959 0.951641
vt 0.313847 0.394545
v -5.03806 -3.13542 -0.140562
vn 0.00414451 -0.838271 0.545238
vt 0.269603 0.251473
v -4.45817 3.48371 0.70785
vn -0.0890461 0.0961068 0.99138
vt 0.316565 0.622836
v -4.45817 3.48371 0.70785
vn -0.0890461 0.0961068 0.99138
vt 0.318041 0.623061
v -4.28555 -3.68515 -1.93803
vn 0.140914 -0.928697 0.343023
vt 0.339699 0.00815471
v -3.26364 6.63114 3.31416
vn 0.489352 -0.108563 0.865302
vt 0.317831 0.789548
v -0.433737 12.4711 2.00545
vn 0.0378579 -0.0759546 0.996392
vt 0.485391 0.994124
v -0.158059 6.46719 1.5373
vn 0.0122627 -0.15605 0.987673
vt 0.486033 0.699948
v 0.0625028 -0.11363 0
vn 0.0217764 -0.060702 0.997918
vt 0.503683 0.430991
v 1.84223 -7.243 5.57693
vn 0.274825 0.634033 0.722824
vt 0.649502 0.0264056
v 3.06125 6.25997 3.2105
vn -0.463411 -0.15599 0.872306
vt 0.637874 0.799342
v 5.28841 6.38614 3.22135
vn 0.0365148 -0.340291 0.939611
vt 0.706316 0.734427
v 6.14516 2.12125 1.64348
vn -0.15749 0.0321358 0.986997
vt 0.745121 0.521537
v 8.97279 -2.15004 4.45576
vn -0.363531 0.212418 0.907041
vt 0.923266 0.338741
v 9.15632 -9.57925 4.84531
vn -0.127433 0.352198 0.927209
vt 0.983277 0.0658033
v 11.9662 4.62497 1.54135
vn -0.0299102 0.110065 0.993474
vt 0.954892 0.643134
f 9/9/9 8/8/8 7/7/7
f 7/7/7 10/10/10 9/9/9
f 9/9/9 10/10/10 12/12/12
f 12/12/12 8/8/8 9/9/9
f 13/13/13 14/14/14 17/17/17
f 17/17/17 14/14/14 15/15/15
f 16/16/16 15/15/15 10/10/10
f 2/2/2 10/10/10 5/5/5
f 16/16/16 10/10/10 11/11/11
f 13/13/13 10/10/10 14/14/14
f 14/14/14 10/10/10 15/15/15
f 4/4/4 1/1/1 2/2/2
f 2/2/2 1/1/1 3/3/3
f 10/10/10 2/2/2 3/3/3
f 3/3/3 6/6/6 10/10/10
f 1/1/1 6/6/6 3/3/3
