# This file uses centimeters as units for non-parametric coordinates.

mtllib Nodules_RT.mtl
g default
v -2.377130 -1.130180 0.586993
v -2.461800 -1.145940 0.207547
v -2.117110 0.405971 -0.218188
v -2.243410 -1.083340 -0.252685
v -2.400640 0.296524 0.251651
v -2.119810 -1.077370 0.887133
v -1.843970 0.806682 0.880172
v -1.530000 -0.934973 0.857442
v -1.436340 0.785210 0.168032
v -1.762740 -1.019160 -0.202033
v -1.281820 -0.779921 1.435340
v -1.487530 -1.014710 0.083542
v -1.546340 0.913907 0.713979
v -1.280690 -0.907572 -0.363027
v -0.996220 -0.732604 1.696430
v -0.994614 -0.865767 -0.627332
v -0.967124 1.366650 1.358540
v -0.898731 1.405610 -0.061439
v -0.896620 1.624550 0.963643
v -0.967123 0.963335 -0.450214
v -0.619292 -0.666220 1.881170
v -0.114435 1.009150 -0.747905
v -0.357518 -0.835797 -1.356060
v -0.357148 -0.869570 -0.936759
v -0.229304 1.777240 0.384507
v -0.109375 1.509460 1.745380
v 0.178542 0.699882 -1.886280
v -0.263283 0.845832 -1.320140
v -0.163961 -0.832725 -1.768240
v 0.392338 1.140360 -1.568100
v 0.155713 -0.730080 1.912800
v 0.184845 -0.877022 -1.963970
v 0.371167 1.694380 0.627000
v 0.036646 1.748450 1.272210
v 0.470761 0.935112 -0.651384
v 0.340553 1.429930 1.554090
v 0.449337 -0.766985 1.679270
v 0.707759 -0.780671 1.489720
v 0.806844 0.623672 -1.582020
v 0.749925 -0.951633 -1.750320
v 0.912514 1.794570 0.196827
v 0.882297 0.685112 -1.133170
v 0.505395 1.425580 1.027310
v 0.910252 -0.985672 -1.190540
v 1.265920 -0.798713 1.707670
v 1.339980 1.371230 -0.660555
v 1.617590 -0.901314 1.705510
v 1.619570 -1.029430 -1.131090
v 2.113460 0.220440 -0.799628
v 1.858760 1.390400 -0.370795
v 1.928080 -1.109100 1.580580
v 1.977380 -1.112200 -0.967326
v 1.585690 1.586770 0.987648
v 1.625030 1.048560 1.475130
v 2.216300 -1.197800 1.360080
v 2.223390 -1.325830 -0.690340
v 2.281930 0.823934 -0.419247
v 2.347180 0.420128 1.114020
v 2.401870 -1.352700 -0.294054
v 2.418310 -1.276660 1.041830
v 2.489610 0.491199 0.104957
v 2.490490 -1.353040 0.163281
v 2.502840 -1.328050 0.625733
v 2.422360 0.923790 0.607980
vt 0.715676 0.706700
vt 0.727041 0.697069
vt 0.650601 0.500795
vt 0.658977 0.554075
vt 0.587670 0.488380
vt 0.503957 0.553687
vt 0.465950 0.492984
vt 0.048776 0.699891
vt 0.056467 0.714027
vt 0.114403 0.733067
vt 0.006371 0.648688
vt 0.038490 0.685813
vt 0.069167 0.634483
vt 0.017144 0.568676
vt 0.006966 0.613282
vt 0.108255 0.597862
vt 0.115756 0.527142
vt 0.072100 0.540434
vt 0.103650 0.571263
vt 0.145609 0.497244
vt 0.130103 0.516063
vt 0.683877 0.742808
vt 0.645233 0.781962
vt 0.598827 0.799867
vt 0.509195 0.790645
vt 0.365368 0.751474
vt 0.815922 0.681962
vt 0.941227 0.560983
vt 0.938989 0.679755
vt 0.988333 0.611468
vt 0.880925 0.529553
vt 0.743388 0.539759
vt 0.801447 0.583836
vt 0.473470 0.561772
vt 0.352927 0.496973
vt 0.256891 0.493449
vt 0.430093 0.571316
vt 0.222314 0.751600
vt 0.764392 0.682131
vt 0.686330 0.519912
vt 0.753088 0.592400
vt 0.658977 0.652391
vt 0.520433 0.667732
vt 0.539097 0.609378
vt 0.441532 0.596882
vt 0.284120 0.663230
vt 0.735216 0.620533
vt 0.237805 0.553177
vt 0.244198 0.578297
vt 0.495425 0.571047
vt 0.131072 0.650796
vt 0.647865 0.632357
vt 0.544617 0.697219
vt 0.353574 0.619049
vt 0.370744 0.710714
vt 0.472830 0.726393
vt 0.438093 0.709997
vt 0.658457 0.583241
vt 0.425350 0.662758
vt 0.845827 0.640435
vt 0.158445 0.670397
vt 0.199829 0.648299
vt 0.891894 0.616224
vt 0.358484 0.687585
vn -0.419651 0.122226 -0.899419
vn -0.614034 0.085211 -0.784667
vn -0.563218 0.311254 -0.765445
vn -0.563218 0.311254 -0.765445
vn -0.614034 0.085211 -0.784667
vn -0.812445 0.090039 -0.576043
vn -0.818674 0.106206 0.564352
vn -0.578255 0.137456 0.804193
vn -0.678179 0.392415 0.621357
vn -0.678179 0.392415 0.621357
vn -0.578255 0.137456 0.804193
vn -0.346862 0.137413 0.927795
vn -0.082234 0.491028 0.867254
vn -0.021444 0.101194 0.994636
vn 0.414549 0.087625 0.905799
vn 0.850328 -0.013348 -0.526084
vn 0.621957 0.034929 -0.782272
vn 0.579779 0.122525 -0.805508
vn 0.579779 0.122525 -0.805508
vn 0.621957 0.034929 -0.782272
vn 0.295062 0.083140 -0.951854
vn 0.993637 -0.019487 -0.110928
vn 0.954085 -0.024616 -0.298522
vn 0.953404 0.029450 -0.300256
vn 0.953404 0.029450 -0.300256
vn 0.954085 -0.024616 -0.298522
vn 0.850328 -0.013348 -0.526084
vn 0.930333 -0.005156 0.366679
vn 0.996293 -0.024200 0.082556
vn 0.994864 0.029895 0.096709
vn 0.994864 0.029895 0.096709
vn 0.996293 -0.024200 0.082556
vn 0.993637 -0.019487 -0.110928
vn 0.545348 0.095033 0.832805
vn 0.747851 0.040282 0.662643
vn 0.718265 0.173133 0.673885
vn 0.718265 0.173133 0.673885
vn 0.747851 0.040282 0.662643
vn 0.930333 -0.005156 0.366679
vn -0.175150 0.124222 0.976674
vn 0.286209 0.111346 0.951676
vn 0.289937 0.328911 0.898751
vn 0.289937 0.328911 0.898751
vn 0.286209 0.111346 0.951676
vn 0.545348 0.095033 0.832805
vn -0.916786 0.395649 0.054457
vn -0.993871 0.068657 0.086640
vn -0.801546 0.124332 -0.584864
vn -0.902759 0.065943 -0.425063
vn -0.972878 0.059294 -0.223590
vn -0.923120 0.258562 -0.284596
vn 0.216810 0.049993 -0.974933
vn -0.089279 0.048657 -0.994817
vn -0.023679 0.209684 -0.977482
vn -0.023679 0.209684 -0.977482
vn -0.089279 0.048657 -0.994817
vn -0.467374 0.050205 -0.882633
vn 0.981027 0.033308 -0.190988
vn 0.924938 0.023188 -0.379411
vn 0.935802 0.158189 -0.315042
vn -0.844365 0.153830 -0.513210
vn -0.840464 0.048295 -0.539710
vn -0.955333 0.050806 -0.291131
vn -0.983476 0.132686 -0.123163
vn -0.997102 0.044171 -0.061936
vn -0.976731 0.041572 0.210400
vn -0.766636 0.053408 0.639857
vn -0.596238 0.050827 0.801197
vn -0.645087 0.244503 0.723934
vn -0.299417 0.051400 0.952737
vn 0.095573 0.054431 0.993933
vn 0.218037 0.456582 0.862550
vn -0.050843 0.258307 -0.964724
vn -0.092590 0.049282 -0.994484
vn -0.539411 0.047258 -0.840716
vn 0.722513 0.418499 0.550304
vn 0.608732 0.075143 0.789809
vn 0.176509 0.119554 0.977012
vn 0.414549 0.087625 0.905799
vn 0.608732 0.075143 0.789809
vn 0.722513 0.418499 0.550304
vn -0.210177 0.493041 0.844237
vn -0.352778 0.118522 0.928170
vn -0.175150 0.124222 0.976674
vn 0.295062 0.083140 -0.951854
vn 0.087036 0.068621 -0.993839
vn 0.242947 0.287576 -0.926432
vn -0.812445 0.090039 -0.576043
vn -0.920005 0.085729 -0.382415
vn -0.808353 0.391414 -0.439728
vn -0.030170 0.122620 0.991995
vn -0.925598 0.077392 0.370512
vn -0.808936 0.392501 0.437682
vn 0.525408 0.469006 -0.709916
vn 0.797234 0.037495 -0.602505
vn 0.697427 0.036767 -0.715712
vn -0.304738 0.736779 0.603565
vn -0.342901 0.553326 0.759111
vn -0.346862 0.137413 0.927795
vn -0.419651 0.122226 -0.899419
vn -0.316631 0.440971 -0.839815
vn -0.298045 0.551258 -0.779284
vn 0.242947 0.287576 -0.926432
vn 0.300927 0.304327 -0.903785
vn 0.295062 0.083140 -0.951854
vn -0.801546 0.124332 -0.584864
vn -0.916135 0.286071 0.280821
vn -0.916786 0.395649 0.054457
vn -0.300390 0.692924 -0.655455
vn -0.099522 0.757728 -0.644937
vn 0.013177 0.671126 -0.741227
vn -0.808353 0.391414 -0.439728
vn -0.796951 0.375517 -0.473135
vn -0.812445 0.090039 -0.576043
vn 0.559792 0.709707 0.427726
vn 0.722513 0.418499 0.550304
vn 0.176509 0.119554 0.977012
vn 0.013177 0.671126 -0.741227
vn 0.300927 0.304327 -0.903785
vn 0.242947 0.287576 -0.926432
vn 0.811247 0.559619 -0.169426
vn 0.751497 0.659498 0.017741
vn 0.904390 0.376351 0.201093
vn 0.921469 0.330651 -0.203874
vn 0.731566 0.439884 -0.520878
vn 0.981027 0.033308 -0.190988
vn -0.298045 0.551258 -0.779284
vn -0.234114 0.764568 -0.600521
vn 0.151106 0.774037 -0.614844
vn -0.258852 0.957847 -0.124595
vn 0.140174 0.978539 -0.151037
vn 0.069006 0.917496 -0.391714
vn -0.808353 0.391414 -0.439728
vn -0.618672 0.721550 -0.310821
vn -0.559144 0.710862 -0.426653
vn -0.567309 0.813019 0.130999
vn -0.342901 0.553326 0.759111
vn -0.304738 0.736779 0.603565
vn -0.955333 0.050806 -0.291131
vn -0.983476 0.132686 -0.123163
vn -0.916223 0.275818 -0.290620
vn 0.646801 0.734696 0.204622
vn 0.670165 0.604688 0.430386
vn 0.904390 0.376351 0.201093
vn 0.930333 -0.005156 0.366679
vn 0.945043 0.117570 0.305076
vn 0.718265 0.173133 0.673885
vn 0.422078 0.344810 -0.838425
vn 0.475479 0.508755 -0.717696
vn 0.797355 0.332722 -0.503509
vn 0.260255 0.925519 0.275103
vn 0.722513 0.418499 0.550304
vn 0.559792 0.709707 0.427726
vn 0.414549 0.087625 0.905799
vn 0.397959 0.585119 0.706586
vn -0.082234 0.491028 0.867254
vn 0.379026 0.907747 0.179819
vn 0.096725 0.988282 0.118080
vn 0.025062 0.885455 0.464049
vn 0.070654 0.529838 0.845151
vn 0.493001 0.509418 0.705296
vn 0.437306 0.604581 0.665767
vn -0.015006 0.865167 0.501259
vn -0.117193 0.831407 0.543165
vn 0.224405 0.824468 0.519514
vn -0.559144 0.710862 -0.426653
vn -0.796951 0.375517 -0.473135
vn -0.808353 0.391414 -0.439728
vn -0.298045 0.551258 -0.779284
vn -0.316631 0.440971 -0.839815
vn -0.559144 0.710862 -0.426653
vn 0.559792 0.709707 0.427726
vn 0.512844 0.833985 0.203617
vn 0.260255 0.925519 0.275103
vn -0.073919 0.946441 -0.314302
vn -0.221549 0.970267 -0.097462
vn 0.108398 0.994051 -0.010575
vn -0.082234 0.491028 0.867254
vn 0.397959 0.585119 0.706586
vn 0.260255 0.925519 0.275103
vn 0.290922 0.076859 0.953655
vn 0.090929 0.641456 0.761752
vn 0.000839 0.740451 0.672109
vn 0.980987 0.119988 -0.152535
vn 0.996373 0.074081 -0.041879
vn 0.993637 -0.019487 -0.110928
vn -0.902759 0.065943 -0.425063
vn -0.923120 0.258562 -0.284596
vn -0.749414 0.451947 -0.483862
vn 0.656446 0.423483 0.624293
vn 0.586829 0.311848 0.747250
vn 0.904390 0.376351 0.201093
vn 0.545348 0.095033 0.832805
vn 0.586829 0.311848 0.747250
vn 0.656446 0.423483 0.624293
vn 0.013177 0.671126 -0.741227
vn 0.475479 0.508755 -0.717696
vn 0.422078 0.344810 -0.838425
vn -0.112568 0.450722 -0.885538
vn 0.314486 0.302289 -0.899844
vn 0.237983 0.051456 -0.969905
vn 0.491643 0.852342 -0.178326
vn 0.751497 0.659498 0.017741
vn 0.811247 0.559619 -0.169426
vn -0.559144 0.710862 -0.426653
vn -0.234114 0.764568 -0.600521
vn -0.298045 0.551258 -0.779284
vn -0.567309 0.813019 0.130999
vn -0.794751 0.485710 0.363946
vn -0.678179 0.392415 0.621357
vn -0.678179 0.392415 0.621357
vn -0.794751 0.485710 0.363946
vn -0.818674 0.106206 0.564352
vn -0.766636 0.053408 0.639857
vn -0.645087 0.244503 0.723934
vn -0.826394 0.331710 0.455017
vn 0.746894 0.653271 0.124037
vn 0.478706 0.759656 0.440185
vn 0.434119 0.748170 0.501778
vn 0.243730 0.968868 -0.043478
vn 0.046532 0.933080 -0.356647
vn 0.012175 0.977500 -0.210585
vn 0.069006 0.917496 -0.391714
vn -0.282419 0.800810 -0.528150
vn -0.258852 0.957847 -0.124595
vn -0.435429 0.712848 -0.549772
vn -0.512993 0.725158 -0.459330
vn -0.258852 0.957847 -0.124595
vn -0.719448 0.685473 0.111901
vn -0.560592 0.819969 0.115707
vn -0.502836 0.845719 -0.178647
vn -0.502836 0.845719 -0.178647
vn -0.221549 0.970267 -0.097462
vn -0.073919 0.946441 -0.314302
vn -0.660927 0.734547 -0.153678
vn -0.518144 0.850689 0.088632
vn -0.567309 0.813019 0.130999
vn -0.395489 0.898699 -0.189549
vn -0.660927 0.734547 -0.153678
vn -0.567309 0.813019 0.130999
vn 0.216810 0.049993 -0.974933
vn -0.023679 0.209684 -0.977482
vn 0.233533 0.388071 -0.891551
vn 0.233533 0.388071 -0.891551
vn -0.023679 0.209684 -0.977482
vn -0.240586 0.636318 -0.732951
vn -0.285467 0.884763 -0.368379
vn -0.543504 0.709166 -0.449095
vn -0.653113 0.755394 -0.053139
vn 0.581642 0.780410 -0.229461
vn 0.486468 0.873279 -0.027072
vn 0.746894 0.653271 0.124037
vn -0.653113 0.755394 -0.053139
vn -0.674289 0.735795 0.062771
vn -0.331693 0.906747 0.260364
vn -0.473231 0.772929 -0.422651
vn -0.540884 0.771536 -0.334927
vn -0.258852 0.957847 -0.124595
vn 0.953404 0.029450 -0.300256
vn 0.837168 0.095702 -0.538508
vn 0.797355 0.332722 -0.503509
vn 0.850328 -0.013348 -0.526084
vn 0.837168 0.095702 -0.538508
vn 0.953404 0.029450 -0.300256
vn 0.980987 0.119988 -0.152535
vn 0.935900 0.314801 -0.158089
vn 0.904390 0.376351 0.201093
vn -0.175150 0.124222 0.976674
vn 0.003868 0.538038 0.842912
vn -0.210177 0.493041 0.844237
vn -0.210177 0.493041 0.844237
vn 0.003868 0.538038 0.842912
vn 0.224405 0.824468 0.519514
vn -0.567309 0.813019 0.130999
vn -0.208258 0.942487 0.261432
vn -0.132319 0.988790 0.069177
vn -0.567309 0.813019 0.130999
vn -0.268331 0.961786 -0.054468
vn -0.395489 0.898699 -0.189549
vn 0.151106 0.774037 -0.614844
vn 0.116145 0.915415 -0.385391
vn 0.275143 0.890072 -0.363412
s off
g Nodules_RT:Mesh
usemtl initialShadingGroup
f 24/22/1 16/1/2 20/42/3
f 20/42/4 16/1/5 14/2/6
f 11/40/7 15/3/8 17/4/9
f 17/4/10 15/3/11 21/5/12
f 26/6/13 21/5/14 31/7/15
f 56/8/16 52/9/17 49/61/18
f 49/61/19 52/9/20 48/10/21
f 62/11/22 59/12/23 61/13/24
f 61/13/25 59/12/26 56/8/27
f 60/14/28 63/15/29 64/16/30
f 64/16/31 63/15/32 62/11/33
f 51/17/34 55/18/35 58/19/36
f 58/19/37 55/18/38 60/14/39
f 45/20/40 47/21/41 54/48/42
f 54/48/43 47/21/44 51/17/45
f 28/53/46 23/23/47 24/22/48
f 29/24/49 23/23/50 28/53/51
f 40/26/52 32/25/53 27/56/54
f 27/56/55 32/25/56 29/24/57
f 44/38/58 40/26/59 39/55/60
f 3/60/61 4/29/62 2/30/63
f 5/63/64 2/30/65 1/28/66
f 1/28/67 6/31/68 7/33/69
f 6/31/70 8/32/71 7/33/72
f 3/60/73 10/27/74 4/29/75
f 36/34/76 37/35/77 38/36/78
f 31/7/79 37/35/80 36/34/81
f 43/37/82 38/36/83 45/20/84
f 48/10/85 44/38/86 42/64/87
f 14/2/88 12/39/89 9/47/90
f 8/32/91 11/40/92 13/41/93
f 9/47/94 12/39/95 10/27/96
f 26/6/97 17/4/98 21/5/99
f 24/22/100 20/42/101 22/43/102
f 42/64/103 49/61/104 48/10/105
f 24/22/106 22/43/107 28/53/108
f 42/64/109 35/59/110 46/46/111
f 9/47/112 20/42/113 14/2/114
f 43/37/115 36/34/116 38/36/117
f 46/46/118 49/61/119 42/64/120
f 57/51/121 53/49/122 64/16/123
f 39/55/124 42/64/125 44/38/126
f 22/43/127 25/44/128 35/59/129
f 41/54/130 53/49/131 50/62/132
f 9/47/133 13/41/134 18/52/135
f 19/58/136 17/4/137 26/6/138
f 2/30/139 5/63/140 3/60/141
f 53/49/142 54/48/143 64/16/144
f 60/14/145 64/16/146 58/19/147
f 49/61/148 50/62/149 57/51/150
f 34/50/151 36/34/152 43/37/153
f 31/7/154 36/34/155 26/6/156
f 30/57/157 28/53/158 35/59/159
f 43/37/160 41/54/161 33/45/162
f 41/54/163 43/37/164 53/49/165
f 18/52/166 20/42/167 9/47/168
f 22/43/169 20/42/170 18/52/171
f 43/37/172 33/45/173 34/50/174
f 9/47/175 7/33/176 13/41/177
f 26/6/178 36/34/179 34/50/180
f 8/32/181 13/41/182 7/33/183
f 61/13/184 64/16/185 62/11/186
f 29/24/187 28/53/188 27/56/189
f 54/48/190 58/19/191 64/16/192
f 51/17/193 58/19/194 54/48/195
f 46/46/196 50/62/197 49/61/198
f 3/60/199 9/47/200 10/27/201
f 50/62/202 53/49/203 57/51/204
f 18/52/205 25/44/206 22/43/207
f 19/58/208 13/41/209 17/4/210
f 17/4/211 13/41/212 11/40/213
f 1/28/214 7/33/215 5/63/216
f 42/64/217 30/57/218 35/59/219
f 34/50/220 33/45/221 25/44/222
f 50/62/223 46/46/224 41/54/225
f 46/46/226 35/59/227 41/54/228
f 5/63/229 7/33/230 3/60/231
f 3/60/232 7/33/233 9/47/234
f 18/52/235 13/41/236 19/58/237
f 25/44/238 18/52/239 19/58/240
f 40/26/241 27/56/242 39/55/243
f 39/55/244 27/56/245 30/57/246
f 30/57/247 27/56/248 28/53/249
f 39/55/250 30/57/251 42/64/252
f 28/53/253 22/43/254 35/59/255
f 35/59/256 33/45/257 41/54/258
f 61/13/259 49/61/260 57/51/261
f 56/8/262 49/61/263 61/13/264
f 61/13/265 57/51/266 64/16/267
f 45/20/268 54/48/269 43/37/270
f 43/37/271 54/48/272 53/49/273
f 19/58/274 26/6/275 34/50/276
f 19/58/277 34/50/278 25/44/279
f 35/59/280 25/44/281 33/45/282
